<?xml version="1.0" encoding="UTF-8" standalone="no"?>
<!-- Created with Inkscape (http://www.inkscape.org/) -->

<svg
   version="1.1"
   id="svg9"
   width="1124.5"
   height="784.5"
   viewBox="0 0 1124.5 784.5"
   xmlns:xlink="http://www.w3.org/1999/xlink"
   xmlns="http://www.w3.org/2000/svg"
   xmlns:svg="http://www.w3.org/2000/svg">
  <defs
     id="defs13" />
  <g
     id="g15">
    <image
       width="1124.5"
       height="784.5"
       preserveAspectRatio="none"
       xlink:href="logo.png"
       id="image17" />
    <path
       style="fill:#d42a40;fill-opacity:1;stroke-width:0.5"
       d="m 442.5,783.9457 c -13.59089,-0.59095 -47.93487,-3.73665 -53.75,-4.92325 -1.375,-0.28055 -5.3125,-0.8344 -8.75,-1.23075 -3.4375,-0.39635 -6.5875,-0.85035 -7,-1.0089 -0.4125,-0.15855 -3.3375,-0.73585 -6.5,-1.28285 -7.19483,-1.24445 -14.42313,-2.65995 -20.25,-3.9655 -16.28109,-3.64785 -17.44104,-3.9295 -27,-6.55555 -1.925,-0.52885 -5.08035,-1.38085 -7.01189,-1.8934 -12.38946,-3.2876 -44.99318,-14.69255 -55.98811,-19.585 -1.375,-0.6118 -4.38406,-1.88085 -6.6868,-2.82005 -2.30273,-0.9392 -5.45273,-2.2861 -7,-2.993 C 204.55615,720.3222 173.3151,701.46335 145,678.7929 c -6.5537,-5.2472 -15.07352,-12.2953 -15.5,-12.8225 -0.1375,-0.16995 -1.9375,-1.7407 -4,-3.49055 C 115.67539,654.14465 96.072905,633.6914 85.505935,620.75 82.36232,616.9 79.66429,613.6375 79.510315,613.5 79.264945,613.2809 76.532145,609.61915 68.1291,598.25 65.369065,594.51575 56.07789,580.3384 53.59724,576.0759 52.58126,574.33015 51.3,572.14255 50.75,571.2146 c -3.771113,-6.36275 -7.127535,-12.40085 -10.208506,-18.3649 -1.960551,-3.7952 -3.77958,-7.2827 -4.042287,-7.75 C 35.887858,544.01215 31.5,534.49855 31.5,534.26055 c 0,-0.0987 -1.0125,-2.3172 -2.25,-4.9301 -1.2375,-2.6129 -2.25,-4.9034 -2.25,-5.09 0,-0.18665 -0.324688,-1.0483 -0.721529,-1.9149 C 25.88163,521.459 24.74778,518.6125 23.758805,516 c -0.988976,-2.6125 -1.984194,-5.2 -2.211596,-5.75 -1.381152,-3.3405 -2.579728,-6.8234 -3.097194,-9 -0.32689,-1.375 -0.757405,-2.725 -0.956701,-3 -0.199296,-0.275 -0.646555,-1.7375 -0.993909,-3.25 -0.347353,-1.5125 -0.824884,-3.12534 -1.061178,-3.5841 -0.43088,-0.83652 -0.931356,-2.59076 -3.256906,-11.4159 -2.5349905,-9.61994 -3.2957065,-12.86487 -4.215267,-17.98073 -0.517114,-2.8769 -1.078261,-5.5769 -1.2469925,-6 C 6.2181085,454.76312 4.5303511,444.21798 3.7550388,437.5 3.3583217,434.0625 2.8014095,430.125 2.5174562,428.75 1.6497042,424.54804 0.48724819,405.54473 0.16236476,390.25 -0.38215843,364.61516 2.1376015,335.35996 6.751333,313.75 c 0.410988,-1.925 0.983021,-5.05715 1.271185,-6.96033 0.2881635,-1.90318 0.660016,-3.68051 0.8263385,-3.94963 0.166323,-0.26911 0.6765675,-2.19947 1.1338775,-4.28967 l 0.831472,-3.80037 131.119304,-0.12594 131.1193,-0.12594 -3.19916,4.62594 c -4.79978,6.94038 -8.57155,13.20329 -11.57639,19.22223 -2.84183,5.69241 -7.48834,16.86309 -8.07109,19.40371 -0.18923,0.825 -0.50862,1.725 -0.70977,2 -0.35946,0.49146 -2.5928,8.36343 -4.18469,14.75 -0.44555,1.7875 -1.13925,5.275 -1.54157,7.75 -0.40232,2.475 -0.96083,5.83942 -1.24112,7.47649 -1.17165,6.84299 -1.69083,24.6728 -1.07808,37.02351 0.32743,6.6 0.80891,13.125 1.06994,14.5 0.26103,1.375 0.81732,4.6375 1.23619,7.25 1.27769,7.96884 6.3192,26.72948 7.72593,28.75 0.19146,0.275 0.86595,1.9625 1.49886,3.75 1.84132,5.20031 3.64892,9.08483 8.25967,17.75 4.2895,8.06142 14.17509,22.6139 18.21945,26.8207 0.43396,0.4514 1.68734,1.9139 2.78528,3.25 4.24794,5.1694 7.38373,8.2519 20.75374,20.40085 4.72157,4.29035 23.73029,17.48885 28,19.44145 0.4125,0.18865 2.325,1.2469 4.25,2.3517 3.54268,2.03325 18.48762,9.4853 19.02254,9.4853 0.15973,0 1.45749,0.54725 2.88393,1.21605 1.42645,0.66885 4.16853,1.8014 6.09353,2.51675 1.925,0.71535 3.8375,1.47675 4.25,1.692 0.4125,0.21525 3.45,1.24485 6.75,2.28805 3.3,1.04315 6.45,2.0876 7,2.32105 0.55,0.2334 2.0125,0.66815 3.25,0.9661 1.2375,0.29795 2.7,0.75515 3.25,1.01595 2.94074,1.39455 22.59853,5.6412 33.5,7.23695 2.75,0.40255 6.2375,0.95705 7.75,1.2322 1.5125,0.27515 5.675,0.7271 9.25,1.00435 3.575,0.2772 9.7625,0.78675 13.75,1.1323 5.54823,0.4808 33.42115,0.62825 118.7461,0.62825 h 111.49605 l 3.5821,-9.25 c 1.97015,-5.0875 3.813,-9.8125 4.09525,-10.5 0.46875,-1.14185 3.2507,-8.30305 6.4099,-16.5 0.6889,-1.7875 1.78235,-4.6 2.4299,-6.25 0.64755,-1.65 1.76595,-4.575 2.4853,-6.5 0.7194,-1.925 1.5084,-3.95 1.75325,-4.5 0.80875,-1.81635 4.9216,-12.4245 6.4941,-16.75 0.8498,-2.3375 1.87425,-4.959 2.27655,-5.82555 0.40235,-0.8666 0.7315,-1.73255 0.7315,-1.92445 0,-0.1919 0.3247,-1.05785 0.72155,-1.92445 0.3968,-0.86655 1.53805,-3.71305 2.5361,-6.32555 2.84255,-7.44103 5.67325,-14.76062 8.0486,-20.81194 1.20075,-3.05906 2.2418,-6.09656 2.31345,-6.75 0.12925,-1.17832 0.0914,-1.18781 -4.6197,-1.15829 -2.6125,0.0163 -33.7571,0.30429 -69.2102,0.63981 -35.4531,0.33553 -64.60795,0.43464 -64.7886,0.22024 -0.25565,-0.30345 -11.5105,-25.46854 -16.49865,-36.88982 -2.9978,-6.86404 -12.3071,-28.07837 -16.1267,-36.75 -2.4831,-5.6375 -4.9335,-11.20625 -5.4453,-12.375 -0.5118,-1.16875 -1.35495,-3.08125 -1.8736,-4.25 -0.5187,-1.16875 -1.438,-3.25 -2.04295,-4.625 -0.605,-1.375 -1.5085,-3.4 -2.00785,-4.5 -0.49935,-1.1 -3.43345,-7.7375 -6.52015,-14.75 -5.28865,-12.01498 -7.1507,-16.21645 -8.753,-19.75 -0.3741,-0.825 -1.2289,-2.7375 -1.89955,-4.25 -0.67065,-1.5125 -1.66855,-3.7625 -2.2176,-5 -0.54905,-1.2375 -1.7296,-3.9375 -2.62345,-6 -0.89385,-2.0625 -2.2468,-5.1 -3.00655,-6.75 -0.75975,-1.65 -2.96685,-6.6 -4.9047,-11 l -3.5234,-8 250.30395,-0.12549 c 137.6672,-0.069 250.3863,-0.0431 250.487,0.0575 0.1007,0.10068 -0.6295,2.18215 -1.6227,4.6255 -0.9931,2.44334 -2.5772,6.57994 -3.5202,9.19244 -0.943,2.6125 -1.9287,5.2 -2.1905,5.75 -0.2618,0.55 -1.2881,3.1375 -2.2807,5.75 -2.6858,7.06895 -4.63155,12.12031 -7.0297,18.25 -1.1835,3.025 -2.84305,7.4125 -3.6879,9.75 -0.84485,2.3375 -1.74495,4.7 -2.00025,5.25 -0.47585,1.02527 -1.07025,2.56207 -5.5113,14.25 -1.41065,3.7125 -3.3303,8.6625 -4.2659,11 -0.9356,2.3375 -2.38905,6.1625 -3.22985,8.5 -0.84085,2.3375 -1.74065,4.7 -1.9996,5.25 -0.68315,1.45117 -3.7477,9.50366 -4.94735,13 -0.56615,1.65 -1.68055,4.6875 -2.47645,6.75 -0.7959,2.0625 -2.7242,7.125 -4.2851,11.25 -1.5609,4.125 -3.04585,7.95 -3.29995,8.5 -0.25405,0.55 -1.2672,3.1375 -2.2515,5.75 -1.64505,4.36649 -2.8981,7.64315 -6.0231,15.75 -0.636,1.65 -2.31055,6.0375 -3.7212,9.75 -1.41065,3.7125 -3.3303,8.6625 -4.2659,11 -0.9356,2.3375 -2.3724,6.05 -3.1929,8.25 -0.82045,2.2 -2.19335,5.8 -3.0508,8 -0.8575,2.2 -2.32095,6.025 -3.2522,8.5 -0.9312,2.475 -2.34625,6.1875 -3.14455,8.25 -2.76855,7.15275 -7.2453,18.79305 -10.48005,27.25 -1.7882,4.675 -3.90875,10.1875 -4.71235,12.25 -0.80365,2.0625 -2.31495,6 -3.35855,8.75 -1.0436,2.75 -3.76155,9.8375 -6.0399,15.75 -8.4855,22.0206 -11.0969,28.8146 -12.0116,31.25 -1.46985,3.9135 -11.3671,29.6586 -15.8579,41.25 -1.2252,3.1625 -2.6432,6.875 -3.151,8.25 -0.9754,2.64085 -5.29685,13.90565 -11.70055,30.5 -2.1224,5.5 -5.3205,13.825 -7.10685,18.5 -1.78635,4.675 -3.6924,9.625 -4.23575,11 -0.5433,1.375 -7.0243,18.25 -14.40215,37.5 l -13.4143,35 -185.6891,0.049 C 535.3101,784.32585 447.5875,784.1669 442.5,783.9457 Z M 85.323755,202.37526 c 1.132535,-1.84845 8.258095,-11.74377 9.295505,-12.90874 0.38373,-0.43091 3.157625,-3.76828 6.16422,-7.41638 3.00659,-3.6481 6.3215,-7.66733 7.36648,-8.93163 1.44887,-1.75295 1.86436,-2.66314 1.75,-3.83362 L 109.75,167.75 92.30301,167.63634 c -9.595845,-0.0625 -17.552765,-0.21942 -17.682045,-0.34871 -0.295375,-0.29538 6.89625,-9.15312 13.83291,-17.03763 5.71329,-6.49398 23.383215,-24.54982 25.753195,-26.31565 1.4144,-1.05384 1.53155,-1.06205 4,-0.28012 16.3217,5.17022 37.74667,8.9714 64.04293,11.36238 16.32659,1.4845 51.53639,1.48663 69.25,0.004 23.549,-1.9708 49.98763,-5.79099 65.75,-9.50041 2.2,-0.51774 6.1375,-1.43298 8.75,-2.03388 4.49266,-1.03335 6.93467,-1.68197 14.875,-3.95092 1.85625,-0.53042 5.5125,-1.56265 8.125,-2.29383 8.26559,-2.31337 25.55118,-8.35447 30.75,-10.74674 0.55,-0.25309 3.02336,-1.28338 5.49635,-2.28954 11.15938,-4.540295 31.35074,-14.80561 37.66026,-19.14653 0.73887,-0.50834 2.69339,-1.77971 4.34339,-2.82527 13.37119,-8.472955 27.31906,-20.70633 36.20542,-31.75498 3.61185,-4.490721 5.12389,-6.658602 8.89668,-12.755667 0.6719,-1.085826 3.12662,-6.034642 4.32683,-8.723038 1.19392,-2.674342 3.19106,-9.097345 3.83792,-12.343164 0.31862,-1.59876 0.77287,-3.806836 1.00945,-4.906836 0.23658,-1.1 0.43995,-4.19375 0.45192,-6.875 L 482,0 h 321.25 c 176.6875,0 321.25,0.13474595 321.25,0.29943544 0,0.16468949 -0.3217,1.00843946 -0.715,1.87499996 -0.9351,2.0605428 -2.8572,7.0273711 -4.7698,12.3255646 -0.8439,2.3375 -1.7461,4.7 -2.0051,5.25 -0.2589,0.55 -1.2759,3.1375 -2.2601,5.75 -0.9841,2.6125 -1.9828,5.2 -2.2192,5.75 -0.2364,0.55 -0.7039,1.7875 -1.0389,2.75 -0.335,0.9625 -0.9202,2.459004 -1.3005,3.325564 -0.3803,0.866561 -0.6914,1.732557 -0.6914,1.924436 0,0.191879 -0.3247,1.057875 -0.7215,1.924436 -0.3968,0.86656 -1.527,3.713064 -2.5114,6.325564 -0.9844,2.6125 -2.1222,5.488885 -2.5285,6.391965 -0.4062,0.90308 -0.7386,1.881575 -0.7386,2.174435 0,0.29286 -0.3247,1.241475 -0.7215,2.108035 -0.3968,0.86656 -1.5347,3.713065 -2.5285,6.325565 -0.9938,2.6125 -2.1143,5.425 -2.4899,6.25 -0.3756,0.825 -0.8476,2.160005 -1.0487,2.966675 -0.2012,0.80667 -0.6672,2.04417 -1.0355,2.75 -0.3683,0.70583 -0.6711,1.47432 -0.6728,1.70776 0,0.23344 -0.3278,1.13344 -0.7246,2 -0.3968,0.86656 -1.527,3.713065 -2.5114,6.325565 -0.9844,2.6125 -2.1222,5.488885 -2.5285,6.391965 -0.4062,0.90308 -0.7386,1.881575 -0.7386,2.174435 0,0.29286 -0.3228,1.241475 -0.7173,2.108035 C 1085.67,100.71655 1081,112.99334 1081,113.69082 c 0,0.41259 -0.2,0.87381 -0.4446,1.02494 -0.2445,0.15114 -0.5994,0.89566 -0.7885,1.65451 -0.1892,0.75885 -0.6513,2.05473 -1.027,2.87973 -0.3756,0.825 -1.4884,3.6375 -2.4728,6.25 -0.9844,2.6125 -2.1222,5.48888 -2.5285,6.39196 -0.4062,0.90308 -0.7462,1.91558 -0.7555,2.25 -0.01,0.33442 -0.4517,1.50804 -0.9831,2.60804 -0.5313,1.1 -0.9737,2.18109 -0.983,2.40243 -0.01,0.22134 -0.4274,1.34634 -0.929,2.5 -0.8539,1.96381 -1.5662,3.81915 -4.8367,12.59757 -0.7171,1.925 -1.5052,3.95 -1.7513,4.5 -0.6511,1.45539 -2.72,6.86492 -4.4938,11.75 -0.8488,2.3375 -1.8724,4.959 -2.2747,5.82556 -0.4023,0.86656 -0.7315,1.72266 -0.7315,1.90244 0,0.17978 -0.4104,1.27077 -0.912,2.42443 -0.8539,1.96381 -1.5662,3.81915 -4.8367,12.59757 -0.7171,1.925 -1.5166,3.95 -1.7766,4.5 -0.26,0.55 -0.7771,1.9 -1.149,3 l -0.6763,2 -480.8544,0.12526 c -384.68643,0.1002 -480.77772,2.1e-4 -480.471245,-0.5 z M 731.69085,129.5735 c 8.35645,-2.8178 16.0722,-9.53046 19.6983,-17.13739 3.2052,-6.72396 3.3495,-8.07621 3.35475,-31.43611 0.005,-22.48088 -0.1256,-23.90226 -2.76965,-30.131635 C 748.19025,41.953246 741.1423,35.67835 731,32.19459 728.3499,31.284309 725.42595,31.25 650.5,31.25 h -77.75 l -3.5,1.167512 c -5.32245,1.775429 -9.1371,4.005888 -12.88195,7.532204 -5.77895,5.441668 -8.3245,10.115464 -9.90855,18.193014 C 545.6221,62.412905 545.5,65.321275 545.5,81 c 0,20.09588 0.53015,24.94973 3.364,30.79989 4.8353,9.98192 13.9744,16.97523 24.636,18.85171 0.6875,0.121 35.7875,0.18899 78,0.15108 l 76.75,-0.0689 z m -152.0855,-26.88417 c -1.2638,-0.32099 -2.8803,-1.23351 -3.7814,-2.13461 L 574.25,98.98077 v -17.950105 -17.9501 l 1.25,-1.33779 C 578.2301,58.820945 573.33735,59 650.4466,59 h 70.99625 l 1.76245,1.039865 c 0.9693,0.571925 2.2197,1.77973 2.77855,2.684015 C 726.95205,64.29047 727,65.15264 727,81 c 0,16.01458 -0.039,16.694925 -1.04825,18.328105 -2.2832,3.694285 3.79625,3.393315 -74.17035,3.671895 -50.7939,0.18149 -70.57355,0.0964 -72.17605,-0.31067 z m 417.5855,26.88256 C 1008.155,125.87992 1016.5993,116.88283 1019.3144,106 c 0.8406,-3.36932 0.9356,-5.90714 0.9356,-25 0,-19.092855 -0.095,-21.630675 -0.9356,-25 C 1017.105,47.144362 1010.8867,39.082165 1003.25,35.172225 994.81735,30.85476 1003.6095,31.25 916,31.25 h -77.75 l -3.56895,1.176929 c -11.3892,3.755815 -19.215,11.958827 -22.51775,23.603186 C 811.34225,58.924755 811.25,61.447 811.25,81 c 0,24.18071 0.03,24.45278 3.52345,31.71989 4.3892,9.13103 13.7896,16.08922 24.22655,17.93247 0.6875,0.12142 35.7875,0.18867 78,0.14946 l 76.75,-0.0713 z M 843.5,102.19383 c -0.9625,-0.41803 -2.3125,-1.46741 -3,-2.33196 l -1.25,-1.5719 V 80.927815 63.565665 l 1.5,-1.57747 C 843.8027,58.77782 838.21505,59 915.90125,59 h 70.95085 l 1.653,1.125 c 0.9091,0.61875 2.12365,1.76025 2.69895,2.536665 1.0129,1.36703 1.04595,1.94688 1.04595,18.338335 0,16.31596 -0.037,16.976485 -1.0309,18.30744 -0.567,0.75942 -1.6522,1.84467 -2.4116,2.41167 -1.3778,1.02874 -1.5291,1.0311 -72.4691,1.13283 -62.6577,0.0899 -71.29595,0.0118 -72.8384,-0.65811 z m -648.25,5.81738 c -8.21189,-0.43999 -25.7486,-2.17478 -30.5,-3.01718 -1.65,-0.29253 -5.1375,-0.85099 -7.75,-1.24101 -5.77739,-0.8625 -14.53685,-2.6232 -14.91079,-2.99714 -0.36824,-0.36824 -0.3051,-0.4201 7.5606,-6.210625 6.17478,-4.545705 25.48992,-17.527605 29.16776,-19.603935 0.78783,-0.444775 3.82006,-2.269775 6.73827,-4.05556 2.91822,-1.78578 7.75572,-4.546285 10.75,-6.13446 2.99429,-1.58817 5.67857,-3.070605 5.96509,-3.294295 0.89808,-0.70117 22.29322,-11.248815 26.22907,-12.930738 2.0625,-0.881378 4.425,-1.897044 5.25,-2.257035 C 241.1393,43.044888 245.99861,41 246.27138,41 c 0.18012,0 1.03649,-0.321754 1.90305,-0.71501 0.86656,-0.393256 3.15057,-1.306794 5.07557,-2.030087 1.925,-0.723292 4.5125,-1.724471 5.75,-2.224844 5.44438,-2.201388 22.60726,-8.094766 29.37506,-10.08679 21.24887,-6.254358 35.24449,-9.825699 48.87494,-12.471693 2.75,-0.53384 5.3375,-1.104718 5.75,-1.268616 0.4125,-0.163899 3.225,-0.734166 6.25,-1.26726 3.025,-0.533095 7.975,-1.4257295 11,-1.983633 3.025,-0.557904 8.65,-1.4241285 12.5,-1.9249445 3.85,-0.5008155 8.35,-1.1476405 10,-1.437389 1.65,-0.2897485 5.8125,-0.7811473 9.25,-1.0919974 3.4375,-0.3108501 7.15,-0.7581914 8.25,-0.9940917 1.1,-0.2359003 5.9375,-0.6740547 10.75,-0.9736763 4.8125,-0.2996217 10.325,-0.7758386 12.25,-1.0582599 3.34796,-0.4911879 30.29507,-1.52266096 30.69063,-1.17476674 0.57461,0.50535719 -0.0249,8.96137404 -0.86554,12.20690154 C 450.25076,23.409 440.79335,36.456881 428.25,46.753705 c -12.52867,10.28477 -22.1607,16.40175 -39,24.767595 -15.68513,7.79244 -31.68732,14.11121 -46.75,18.460125 -2.0625,0.59549 -4.875,1.435845 -6.25,1.867455 -5.74523,1.803435 -18.77697,5.130625 -25.75,6.57435 -11.3458,2.34908 -12.95101,2.65982 -18.75,3.62958 -3.3,0.55186 -9.10677,1.42572 -12.90393,1.94192 -3.79716,0.51618 -7.50966,1.06635 -8.25,1.22259 -0.74034,0.15623 -7.53357,0.85545 -15.09607,1.55382 -11.1687,1.03139 -17.41075,1.30469 -33.25,1.45583 -10.725,0.10234 -22.875,0.005 -27,-0.21576 z"
       id="path177" />
    <path
       style="fill:#d42a40;fill-opacity:1;stroke-width:1.21628"
       d="M 420.83256,782.03654 C 263.49256,768.62915 131.21338,695.98325 58.786514,583.20581 29.337555,537.35021 12.01141,491.28774 4.3286783,438.42678 -1.887946,395.65335 -0.37410701,348.70173 8.5713006,306.84211 c 1.3063657,-6.11308 2.3752114,-11.29013 2.3752114,-11.50456 0,-0.21443 58.563837,-0.38988 130.141858,-0.38988 71.57803,0 130.14186,0.2566 130.14186,0.57022 0,0.31361 -2.52131,4.46776 -5.60291,9.23143 -9.87156,15.25987 -17.43433,34.13867 -21.91675,54.7104 -1.77591,8.1504 -2.24579,15.59829 -2.26054,35.83098 -0.0163,22.36562 0.33413,27.11769 2.81819,38.214 7.66645,34.24615 21.54113,59.28462 46.95141,84.7292 34.9156,34.96276 83.92782,56.7216 144.24085,64.03535 9.48306,1.14996 42.69606,1.5447 129.96612,1.5447 h 117.22776 l 21.76476,-55.93841 c 11.9706,-30.76613 21.61323,-56.68422 21.42805,-57.59578 -0.27894,-1.37303 -12.18618,-1.6878 -69.40783,-1.83484 l -69.07113,-0.17748 -9.72391,-21.89302 c -11.34523,-25.54335 -10.60152,-23.8629 -37.41037,-84.5314 -11.38076,-25.75471 -22.61561,-51.20535 -24.96634,-56.55697 l -4.27405,-9.73024 248.8507,-0.30699 c 136.86788,-0.16885 249.12806,-0.0296 249.46706,0.30942 0.3391,0.33903 -3.5447,11.42369 -8.6306,24.63258 -5.08594,13.20888 -15.62917,40.70959 -23.42945,61.11267 -7.80028,20.40308 -21.7461,56.80023 -30.99071,80.88256 -20.01858,52.14863 -87.7214,228.56798 -108.63539,283.08101 L 822.81279,783.87598 630.6407,783.70765 C 489.70097,783.58423 433.7669,783.1387 420.83256,782.03654 Z"
       id="path3196" />
    <path
       style="fill:#1e7944;fill-opacity:1;stroke-width:1.479;stroke-dasharray:none"
       d="m 180.0303,106.39296 c -14.7975,-1.53394 -36.50937,-5.12149 -36.50937,-6.03262 0,-0.96769 4.02941,-3.953544 20.47335,-15.171064 60.17498,-41.049404 139.65648,-69.36612 223.99874,-79.8035834 14.05343,-1.7391293 50.85096,-4.70459286 58.85563,-4.74309539 l 7.16377,-0.0344577 -0.66072,6.40168519 C 450.39151,35.691381 409.23888,67.484556 349.68023,87.103012 c -24.74515,8.150983 -48.26453,13.398078 -79.05814,17.637608 -15.78448,2.17313 -75.1265,3.2555 -90.59179,1.65234 z"
       id="path4379" />
    <path
       style="fill:#1e7944;fill-opacity:1;stroke-width:2.09162;stroke-dasharray:none"
       d="m 577.35039,100.17036 c -2.54943,-1.864186 -2.90297,-4.736188 -2.47885,-20.13682 0.48232,-17.514186 0.602,-17.992297 4.79487,-19.155225 2.3651,-0.655983 35.3003,-1.269853 73.18933,-1.364154 51.48273,-0.128135 69.41068,0.350083 70.95323,1.892636 1.33885,1.338851 2.0641,8.304061 2.0641,19.823475 0,17.48083 -0.0692,17.785691 -4.41218,19.436888 -7.02649,2.67146 -140.40646,2.21166 -144.1105,-0.4968 z"
       id="path6040" />
    <path
       style="fill:#1e7944;fill-opacity:1;stroke-width:2.09162;stroke-dasharray:none"
       d="m 842.10122,99.641681 c -4.00204,-4.002037 -3.89033,-33.731349 0.13933,-37.078226 3.85606,-3.2027 142.33695,-4.494642 146.11021,-1.363119 3.1571,2.620161 3.45606,35.974453 0.35028,39.080234 -1.53865,1.53865 -20.11673,2.06409 -72.98047,2.06409 -62.17599,0 -71.24951,-0.33314 -73.61935,-2.702979 z"
       id="path6042" />
    <path
       style="fill:#1e7944;fill-opacity:1;stroke-width:0.369749;stroke-dasharray:none"
       d="m 581.68547,102.63662 c -2.89956,-0.21836 -3.96374,-0.66625 -5.96414,-2.51015 l -1.33354,-1.229213 v -17.832 -17.832 l 1.2923,-1.406194 c 0.91036,-0.990598 1.68786,-1.512507 2.63071,-1.765913 2.79311,-0.750688 15.74271,-0.900821 78.49639,-0.910063 l 64.63131,-0.0095 1.35182,0.858896 c 1.82301,1.158263 3.23365,2.8296 3.62972,4.300527 0.2194,0.814771 0.29867,6.54558 0.24085,17.411986 l -0.0862,16.197486 -0.76017,1.34138 c -0.4181,0.737758 -1.10226,1.590598 -1.52035,1.895198 -1.37282,1.00017 -5.2955,1.2067 -24.93372,1.31282 -17.65249,0.0954 -18.12516,0.0852 -6.64475,-0.14311 13.3118,-0.26473 24.37661,-0.759 27.17061,-1.21374 2.8289,-0.46042 4.3759,-1.372347 5.10539,-3.009543 0.96115,-2.157111 1.3426,-12.052608 0.8803,-22.836202 -0.35746,-8.338045 -0.85003,-12.230975 -1.71452,-13.550355 -1.17032,-1.78613 -6.22267,-1.997247 -52.01128,-2.173331 -38.41013,-0.14771 -75.11648,0.20142 -87.20398,0.829433 -5.50378,0.285952 -7.38392,0.706075 -8.33854,1.863276 -1.24755,1.512281 -1.90019,9.722391 -1.90763,23.99766 -0.005,8.740829 0.24686,11.073278 1.3812,12.813929 0.90921,1.395203 1.70814,1.630273 6.97651,2.052733 9.47911,0.76012 42.57518,1.46407 76.47355,1.62659 7.4421,0.0357 -6.44628,0.0759 -30.86309,0.0895 -24.4168,0.0135 -45.55725,-0.063 -46.97877,-0.17005 z"
       id="path6044" />
    <path
       style="fill:#1e7944;fill-opacity:1;stroke-width:0.369749;stroke-dasharray:none"
       d="m 839.5652,66.949901 -0.0286,-3.290216 1.24162,-1.472491 c 0.68289,-0.80987 1.60651,-1.622037 2.05247,-1.804815 2.26583,-0.928643 5.80395,-1.015678 44.29283,-1.089574 30.78196,-0.0591 35.10579,-0.02556 20.67674,0.16037 -32.7842,0.422459 -57.16438,1.36847 -63.55058,2.465919 -1.00343,0.172437 -2.05822,0.523533 -2.34398,0.780213 -0.62039,0.557258 -1.32895,2.593896 -1.89703,5.452708 l -0.41493,2.088101 z"
       id="path6046" />
    <path
       style="fill:#1e7944;fill-opacity:1;stroke-width:0.369749;stroke-dasharray:none"
       d="m 845.5711,102.33034 c -2.24256,-0.22928 -2.9993,-0.6235 -4.8059,-2.50363 l -1.22857,-1.278577 0.0214,-3.207497 0.0214,-3.207496 0.54806,2.584593 c 1.00237,4.727105 1.61174,5.520977 4.80825,6.264027 3.60154,0.8372 10.51904,1.11602 32.76165,1.32047 l 22.80524,0.20963 -26.45407,0.0127 c -14.54974,0.007 -27.36459,-0.0804 -28.47745,-0.19419 z"
       id="path6048" />
  </g>
</svg>
